<svg width="36" height="36" viewBox="0 0 36 36" fill="none" xmlns="http://www.w3.org/2000/svg">
<g filter="url(#filter0_d_108_7)">
<g filter="url(#filter1_d_108_7)">
<mask id="path-1-inside-1_108_7" fill="white">
<path fill-rule="evenodd" clip-rule="evenodd" d="M32 14C32 21.732 25.732 28 18 28C10.268 28 4 21.732 4 14C4 6.26801 10.268 0 18 0C25.732 0 32 6.26801 32 14ZM22.6667 7.77778C22.6667 10.3551 20.5774 12.4444 18.0001 12.4444C15.4227 12.4444 13.3334 10.3551 13.3334 7.77778C13.3334 5.20045 15.4227 3.11111 18.0001 3.11111C20.5774 3.11111 22.6667 5.20045 22.6667 7.77778ZM23.4998 16.2781C24.9584 17.7367 25.7778 19.715 25.7778 21.7778H18L10.2223 21.7778C10.2223 19.715 11.0417 17.7367 12.5003 16.2781C13.9589 14.8194 15.9372 14 18 14C20.0628 14 22.0411 14.8194 23.4998 16.2781Z"/>
</mask>
<path fill-rule="evenodd" clip-rule="evenodd" d="M32 14C32 21.732 25.732 28 18 28C10.268 28 4 21.732 4 14C4 6.26801 10.268 0 18 0C25.732 0 32 6.26801 32 14ZM22.6667 7.77778C22.6667 10.3551 20.5774 12.4444 18.0001 12.4444C15.4227 12.4444 13.3334 10.3551 13.3334 7.77778C13.3334 5.20045 15.4227 3.11111 18.0001 3.11111C20.5774 3.11111 22.6667 5.20045 22.6667 7.77778ZM23.4998 16.2781C24.9584 17.7367 25.7778 19.715 25.7778 21.7778H18L10.2223 21.7778C10.2223 19.715 11.0417 17.7367 12.5003 16.2781C13.9589 14.8194 15.9372 14 18 14C20.0628 14 22.0411 14.8194 23.4998 16.2781Z" fill="white"/>
<path d="M25.7778 21.7778V22.7778H26.7778V21.7778H25.7778ZM18 21.7778L18 22.7778H18V21.7778ZM10.2223 21.7778H9.22225V22.7778L10.2223 22.7778L10.2223 21.7778ZM12.5003 16.2781L13.2074 16.9852L13.2074 16.9852L12.5003 16.2781ZM18 14L18 15H18V14ZM18 29C26.2843 29 33 22.2843 33 14H31C31 21.1797 25.1797 27 18 27V29ZM3 14C3 22.2843 9.71573 29 18 29V27C10.8203 27 5 21.1797 5 14H3ZM18 -1C9.71573 -1 3 5.71573 3 14H5C5 6.8203 10.8203 1 18 1V-1ZM33 14C33 5.71573 26.2843 -1 18 -1V1C25.1797 1 31 6.8203 31 14H33ZM18.0001 13.4444C21.1297 13.4444 23.6667 10.9074 23.6667 7.77778H21.6667C21.6667 9.80283 20.0251 11.4444 18.0001 11.4444V13.4444ZM12.3334 7.77778C12.3334 10.9074 14.8704 13.4444 18.0001 13.4444V11.4444C15.975 11.4444 14.3334 9.80283 14.3334 7.77778H12.3334ZM18.0001 2.11111C14.8704 2.11111 12.3334 4.64817 12.3334 7.77778H14.3334C14.3334 5.75274 15.975 4.11111 18.0001 4.11111V2.11111ZM23.6667 7.77778C23.6667 4.64817 21.1297 2.11111 18.0001 2.11111V4.11111C20.0251 4.11111 21.6667 5.75274 21.6667 7.77778H23.6667ZM26.7778 21.7778C26.7778 19.4498 25.853 17.2171 24.2069 15.571L22.7926 16.9852C24.0637 18.2563 24.7778 19.9802 24.7778 21.7778H26.7778ZM18 22.7778H25.7778V20.7778H18V22.7778ZM10.2223 22.7778L18 22.7778L18 20.7778L10.2223 20.7778L10.2223 22.7778ZM11.7932 15.571C10.1471 17.2171 9.22225 19.4498 9.22225 21.7778H11.2223C11.2223 19.9802 11.9363 18.2562 13.2074 16.9852L11.7932 15.571ZM18 13C15.672 13 13.4394 13.9248 11.7932 15.571L13.2074 16.9852C14.4785 15.7141 16.2025 15 18 15L18 13ZM24.2069 15.571C22.5607 13.9248 20.328 13 18 13V15C19.7976 15 21.5216 15.7141 22.7926 16.9852L24.2069 15.571Z" fill="black" mask="url(#path-1-inside-1_108_7)"/>
</g>
</g>
<defs>
<filter id="filter0_d_108_7" x="0" y="0" width="36" height="36" filterUnits="userSpaceOnUse" color-interpolation-filters="sRGB">
<feFlood flood-opacity="0" result="BackgroundImageFix"/>
<feColorMatrix in="SourceAlpha" type="matrix" values="0 0 0 0 0 0 0 0 0 0 0 0 0 0 0 0 0 0 127 0" result="hardAlpha"/>
<feOffset dy="4"/>
<feGaussianBlur stdDeviation="2"/>
<feComposite in2="hardAlpha" operator="out"/>
<feColorMatrix type="matrix" values="0 0 0 0 0 0 0 0 0 0 0 0 0 0 0 0 0 0 0.25 0"/>
<feBlend mode="normal" in2="BackgroundImageFix" result="effect1_dropShadow_108_7"/>
<feBlend mode="normal" in="SourceGraphic" in2="effect1_dropShadow_108_7" result="shape"/>
</filter>
<filter id="filter1_d_108_7" x="0" y="0" width="36" height="36" filterUnits="userSpaceOnUse" color-interpolation-filters="sRGB">
<feFlood flood-opacity="0" result="BackgroundImageFix"/>
<feColorMatrix in="SourceAlpha" type="matrix" values="0 0 0 0 0 0 0 0 0 0 0 0 0 0 0 0 0 0 127 0" result="hardAlpha"/>
<feOffset dy="4"/>
<feGaussianBlur stdDeviation="2"/>
<feComposite in2="hardAlpha" operator="out"/>
<feColorMatrix type="matrix" values="0 0 0 0 0 0 0 0 0 0 0 0 0 0 0 0 0 0 0.25 0"/>
<feBlend mode="normal" in2="BackgroundImageFix" result="effect1_dropShadow_108_7"/>
<feBlend mode="normal" in="SourceGraphic" in2="effect1_dropShadow_108_7" result="shape"/>
</filter>
</defs>
</svg>
